<svg xmlns="http://www.w3.org/2000/svg" viewBox="0 0 612 612">
    <path d="M306 0C137.272 0 0 137.27 0 305.997 0 474.727 137.272 612 306 612s306-137.273 306-306.003C612 137.27 474.73 0 306 0zm0 576.657c-149.24 0-270.657-121.418-270.657-270.66C35.343 156.759 156.76 35.343 306 35.343s270.657 121.416 270.657 270.655c0 149.242-121.417 270.659-270.657 270.659z" fill="currentColor"/>
    <path d="M474.47 144.734c-4.623-8.599-15.336-11.818-23.933-7.197L251.64 244.485a17.67 17.67 0 00-7.197 7.198L137.538 450.536c-3.782 7.035-2.309 15.489 3.063 20.861a17.55 17.55 0 004.137 3.07c5.313 2.857 11.436 2.71 16.428.155l.003.004.075-.04c.072-.037.143-.077.214-.115l198.995-106.87a17.668 17.668 0 007.2-7.197L474.13 162.043c.233-.401.455-.806.655-1.222l.144-.267-.018-.006c2.263-4.877 2.3-10.715-.441-15.814zm-278.067 270.95l67.933-126.361 58.418 58.42-126.351 67.941zm151.357-92.92l-58.421-58.421 126.351-67.94" fill="currentColor"/>
</svg>
