<svg xmlns="http://www.w3.org/2000/svg" id="layer_1" x="0" y="0" viewBox="0 0 1000 270" xml:space="preserve">
    <path d="M423.9 125.4h-30.8v-15.1h28.7V98.7h-28.7V85.5h30.1V74.1h-45.8V137h46.5zm99.2-51.3V137h15.6v-25.3h12.5c14.6 0 20.8-10.2 20.8-19 0-8.6-6.5-18.7-20.9-18.7l-28 .1zm15.7 11.4h5.6c8.4 0 11.5 2 11.5 7.3 0 4.7-2.5 7.3-9.7 7.3h-7.3l-.1-14.6zm47.4-11.4V137h15.6v-25.6h4.5c8.4 0 10.9 12 17.7 25.6h17.4c-8.9-18.5-10.8-26.3-17.3-29.4 7.2-3.3 10.8-8.4 10.8-15.4 0-9.4-7.7-18.1-20.6-18.1h-28.1zm15.7 11.4h7.9c5.9 0 9 2.4 9 7.1 0 5.4-4.3 7.2-8.6 7.2h-8.3V85.5zm105.6 39.9h-30.7v-15.1h28.7V98.7h-28.7V85.5H707V74.1h-45.9V137h46.4zM773 78c-7.9-3.4-14.3-4.8-21.3-4.8-14.6 0-24 7.2-24 18.1 0 22.7 32.1 18.8 32.1 29.1 0 3.7-3.3 5.8-9.2 5.8-6.9 0-12.5-2.2-21.6-8.1v13.6c6.2 3.3 11.7 6.1 22.7 6.1 14 0 24.2-7 24.2-19 0-22-32.1-19.3-32.1-28.8 0-3.2 3.6-5.1 9.2-5.1 5.4 0 10.8 1.6 19.9 5.6L773 78zm66.5 0c-7.9-3.4-14.3-4.8-21.3-4.8-14.6 0-24 7.2-24 18.1 0 22.7 32.1 18.8 32.1 29.1 0 3.7-3.3 5.8-9.2 5.8-6.9 0-12.5-2.2-21.6-8.1v13.6c6.2 3.3 11.7 6.1 22.7 6.1 14 0 24.2-7 24.2-19 0-22-32.1-19.3-32.1-28.8 0-3.2 3.6-5.1 9.2-5.1 5.4 0 10.8 1.6 19.9 5.6V78h.1zm91.3 46.1h-20.4c11.3-14.3 17.1-25.2 17.1-33 0-11.2-7.6-17.9-19.9-17.9-6 0-10.8 1.6-17.6 6v13.1c5-4.9 10.7-7.9 15.1-7.9 4.7 0 8.4 4.2 8.4 9 0 4.9-1.6 9.5-6.8 17.4-4.5 6.9-10.9 16.2-17.5 24.3v1.8h41.6v-12.8zm55.3-50.9h-8.9l-29.7 38.2v10.1H972v15.4h14v-15.4h4.3v-10.1H986V73.2h.1zm-14.1 21h.2v17.2h-13.5L972 94.2zm-498-.7l-12.5-19.4h-17.8l20.1 30.3L443 137h17.4l13.6-21.9 13.6 21.9h17.5l-20.9-32.6 20.2-30.3h-17.8zm-68.6 80.7c-4.4-1.9-7.8-2.6-11.2-2.6-10.3 0-17.7 7.2-17.7 17.1 0 6.8 5.4 16.2 17.5 16.2 5 0 8.5-1.2 11.8-2.8v-5c-3.6 2.4-7.7 3.6-11.3 3.6-7.8 0-13.1-5-13.1-12.4 0-7.1 5.6-12.5 12.9-12.5 3.7 0 7.2 1.1 11.2 3.4v-5h-.1zm25.6-2.4h-3.3l-14 32.6h4.7l10.8-26.4 11.5 26.4h4.7L431 171.8zm24.9.2h-4.7l14.2 32.5c-.2 2.2-2.5 3.6-3.7 3.6-1.9 0-3.3-.4-4.3-1.5v4.2c1.1.7 2.5 1.2 4 1.2 3.7 0 6.1-2.2 8.1-7.4l12.1-32.5H477l-9.5 27.1-11.6-27.2zm54.5 13.1c-3.4 0-5.7-.9-7.6-5.7-2.3-5.7-4.7-7.4-9.3-7.4h-.8v4.2c4.2 0 5 1.5 6.3 5.4.9 2.4 3 4.8 4.9 5.7-2.6 1.2-4.3 2.4-6.3 5.4l-7.8 11.8h5.4l6.3-9.8c1.8-2.7 5-5.6 8.8-5.6v15.4h4.7V189c3.6 0 7 2.8 8.8 5.6l6.3 9.8h5.4l-7.8-11.8c-2-3-3.6-4.2-6.3-5.4 2-.9 4-3.4 4.9-5.7 1.3-3.8 2.2-5.4 6.3-5.4V172h-.6c-4.6 0-7.1 1.6-9.3 7.4-1.9 4.8-4.2 5.7-7.6 5.7v-13.2h-4.7v13.2zm36.5 19.3H558c6.9 0 11.7-3.6 11.7-9.7s-4.8-9.8-11.7-9.8h-6.6v-8.8h16v-4.2h-20.7v32.5h.2zm4.7-15.2h6.2c4.8 0 7.2 2 7.2 5.6 0 3-2.4 5.6-6.3 5.6h-7.1v-11.2zm42.8-17.4h-3.3l-14 32.6h4.7l4-9.5h13.8l4.3 9.5h4.7l-14.2-32.6zm-1.7 7.1l5.3 11.8h-10.2l4.9-11.8zm70.4 21.3h-4.7l-11.2-28.5h-3.3l-10.7 28.5h-4.7v10.2h4.7v-6h25.3v6h4.7v-10.2h-.1zm-17.6-21.6l8.2 21.7h-15.9l7.7-21.7zm26.1 9.6c0 8.8 6.7 16.7 17.4 16.7 10.9 0 17.6-7.9 17.6-16.7 0-9.1-6.7-16.7-17.4-16.7-10.7.1-17.6 7.7-17.6 16.7zm4.8 0c0-7.1 5.4-12.4 12.6-12.4 7.3 0 12.7 5.3 12.7 12.4s-5.4 12.4-12.7 12.4c-7.2 0-12.6-5.3-12.6-12.4zm69.4-14c-4.4-1.9-7.8-2.6-11.2-2.6-10.3 0-17.7 7.2-17.7 17.1 0 6.8 5.4 16.2 17.5 16.2 5 0 8.5-1.2 11.8-2.8v-5c-3.6 2.4-7.7 3.6-11.4 3.6-7.8 0-13.1-5-13.1-12.4 0-7.1 5.6-12.5 12.9-12.5 3.7 0 7.2 1.1 11.2 3.4v-5zM782 172h-27.1v4.2h11.2v28.2h4.7v-28.3H782V172zm23.9-.2h-3.3l-14 32.6h4.7l4-9.5h13.8l4.3 9.5h4.7l-14.2-32.6zm-1.6 7.1l5.3 11.8h-10.2l4.9-11.8zm25.7 25.5h11c8.1 0 11.2-4.7 11.2-8.6 0-4.4-3-7.6-7.8-8.4v-.1c3.4-1.4 5-3.6 5-7 0-4-3-8.3-10-8.3H830v32.4zm4.6-28.2h4.3c4.3 0 5.7 2.1 5.7 4.5 0 3.5-2.2 5.1-6.9 5.1h-3.1v-9.6zm0 13.9h5.7c4.9 0 7.2 2.1 7.2 5 0 2.4-1.5 5.1-7 5.1h-5.9v-10.1zm28-18.1v32.4h4.7V189h1.3c3.1 0 6.3 2 9.1 6.7l5 8.8h5.4l-5.7-9.8c-2.3-4-4.8-6.3-7.1-7.4 1.8-.9 3.6-3.3 4.5-5.7 1.3-3.8 2.2-5.4 6.3-5.4V172h-.8c-4.6 0-7.1 1.6-9.3 7.4-1.9 4.8-4.2 5.7-7.6 5.7h-1.2v-13.2l-4.6.1zm65 0h-2.3l-20.6 24.7V172H900v32.9h2.2l20.6-24.3v23.7h4.7l.1-32.3z"
          fill="#1a1a18"/>
    <path class="st1"
          d="M178.5 21.8C242.8 21.8 295 74 295 138.3s-52.2 116.5-116.5 116.5S62 202.6 62 138.3c.1-64.4 52.2-116.5 116.5-116.5z"/>
    <path class="st2"
          d="M178.5 205.4c-93.8 0-169.7-28.9-169.7-46 0-17.2 39.8-28 97.2-39-.1 3.2-.1 6.3-.1 9.5 2.4 12.6 33.8 19.3 72.7 19.3s70.3-7.1 72.7-19.3c0-3.2 0-6.3-.1-9.5 57.3 10.9 97.2 21.9 97.2 39-.1 17.1-76.1 46-169.9 46z"/>
    <path class="st2"
          d="M244.5 200.6c-15.1 13.9-39 22.9-66 22.9-26.9 0-50.9-9-65.9-22.9 20.2 3 42.6 4.8 65.9 4.8 23.4 0 45.8-1.8 66-4.8z"/>
    <path class="st3" d="M177 223.5c-26.3-.3-49.6-9.2-64.3-22.9 10.6 1.5 21.8 2.7 33.4 3.6 2.1 3 10.5 13.1 30.9 19.3z"/>
    <path d="M178.6 53c-37.9 0-69.9 29.5-72.6 67.4v3.6c2.1 10.7 33.8 19.3 72.7 19.3s70.6-8.4 72.7-19.3l-.1-3.5C248.5 82.6 216.5 53 178.6 53z"
          fill="#009de2"/>
    <path d="M229.1 137.6l.7-.1c6.1-1.6 20.1-6.1 21.6-13.4l-.1-3.5c-1.8-24.8-16.4-47.3-38.8-59.1-1.1-.5-1.8-1-3.3-1.6 1.1.9 20 16.3 20 53v24.7h-.1z"
          fill="#a0d8f7"/>
    <path class="st1"
          d="M106 124.1v5.9c2.4 12.6 33.8 19.3 72.7 19.3s70.3-7.1 72.7-19.3v-5.9c-2.1 10.7-33.8 19.3-72.7 19.3s-70.7-8.6-72.7-19.3zm72.6 41.3c6.5 0 11.7 5.3 11.7 11.7v.1c-3.3 1.6-7.3 2.5-11.7 2.5-4.4 0-8.4-.9-11.7-2.5v-.1c0-6.4 5.3-11.7 11.7-11.7z"/>
    <path class="st6"
          d="M166.9 177.3v-.3c.1-5.1 3.6-9.4 8.2-10.9l.3-.1.3-.1.2-.1h.1l.2-.1h.2l.3-.1.2-.1h1.1c-.1.1-5.1 3-6 8.4-.3 1.8-.3 3.5-.3 5-1.8-.4-3.5-1-4.8-1.6z"/>
    <path class="st7"
          d="M190.3 177.3v3.4c-3.3 1.6-7.3 2.5-11.7 2.5-4.4 0-8.4-.9-11.7-2.5v-3.4c3.3 1.6 7.3 2.5 11.7 2.5 4.3 0 8.5-1 11.7-2.5z"/>
    <path class="st1"
          d="M112.5 159.4c6.5 0 11.7 5.3 11.7 11.7v.1c-3.3 1.6-7.3 2.5-11.7 2.5s-8.4-.9-11.7-2.5v-.1c-.1-6.4 5.3-11.7 11.7-11.7z"/>
    <path class="st6"
          d="M100.7 171.2v-.3c.1-5.1 3.6-9.4 8.2-10.9l.3-.1.3-.1.2-.1h.1l.2-.1h.2l.3-.1h1.3c-.1.1-5.1 3-6 8.4-.3 1.8-.3 3.5-.3 5-1.7-.5-3.4-1-4.8-1.7z"/>
    <path class="st7"
          d="M124.2 171.2v3.4c-3.3 1.6-7.3 2.5-11.7 2.5s-8.4-.9-11.7-2.5v-3.4c3.3 1.6 7.3 2.5 11.7 2.5 4.3.1 8.4-.9 11.7-2.5z"/>
    <path class="st1"
          d="M241.3 159.4c6.5 0 11.7 5.3 11.7 11.7v.1c-3.3 1.6-7.3 2.5-11.7 2.5-4.4 0-8.4-.9-11.7-2.5v-.1c0-6.4 5.3-11.7 11.7-11.7z"/>
    <path class="st6"
          d="M229.6 171.2v-.3c.1-5.1 3.6-9.4 8.2-10.9l.3-.1.3-.1.2-.1h.1l.2-.1h.2l.3-.1h1.3c-.1.1-5.1 3-6 8.4-.3 1.8-.3 3.5-.3 5-1.8-.5-3.3-1-4.8-1.7z"/>
    <path class="st7"
          d="M253 171.2v3.4c-3.3 1.6-7.3 2.5-11.7 2.5-4.4 0-8.4-.9-11.7-2.5v-3.4c3.3 1.6 7.3 2.5 11.7 2.5 4.4.1 8.5-.9 11.7-2.5z"/>
    <path class="st1"
          d="M286 140.9c6.5 0 11.7 5.3 11.7 11.7v.1c-3.3 1.6-7.3 2.5-11.7 2.5-4.4 0-8.4-.9-11.7-2.5v-.1c0-6.4 5.2-11.7 11.7-11.7z"/>
    <path class="st6"
          d="M274.3 152.7v-.3c.1-5.1 3.6-9.4 8.2-10.9l.3-.1.3-.1.2-.1h.1l.2-.1h.1l.3-.1.2-.1h1.1c-.1.1-5.1 3-6 8.4-.3 1.8-.3 3.5-.3 5-1.8-.4-3.3-.9-4.7-1.6z"/>
    <path class="st7"
          d="M297.7 152.7v3.4c-3.3 1.6-7.3 2.5-11.7 2.5-4.4 0-8.4-.9-11.7-2.5v-3.4c3.3 1.6 7.3 2.5 11.7 2.5 4.4.1 8.4-.9 11.7-2.5z"/>
    <path class="st3"
          d="M21.7 143.9c13.9-7.8 38.3-14.2 69.1-20.5 5.1-1 10.3-2.1 15.3-3v.3c-.1 3.1-.1 6.2-.1 9.3 2.1 10.9 26.3 17.4 58.1 18.8 3.5.2 7.1.3 10.7.4-41.5.2-72.7 1.4-141.8 21.7-15.1-8.1-20.9-17.4-11.3-27z"/>
    <path d="M178.5 205.4C92.3 205.4 21 181 10.2 163.8c-.9-1.4-1.2-2.7-1.4-3.7 0-.2-.1-.4-.1-.5 0-5.8 4.6-10.9 12.8-15.4-28 28 74.5 53 156.9 53s184.8-25.2 156.9-53c8.2 4.6 12.8 9.7 12.8 15.4 0 .2 0 .4-.1.5-.1 1.1-.5 2.3-1.4 3.7-10.6 17.2-81.8 41.6-168.1 41.6z"
          fill="#006126"/>
    <path class="st1"
          d="M69.1 140.9c6.5 0 11.7 5.3 11.7 11.7v.1c-3.3 1.6-7.3 2.5-11.7 2.5s-8.4-.9-11.7-2.5v-.1c0-6.4 5.2-11.7 11.7-11.7z"/>
    <path class="st6"
          d="M57.4 152.7v-.3c.1-5.1 3.6-9.4 8.2-10.9l.3-.1.3-.1.2-.1h.1l.2-.1h.3l.3-.1.2-.1h1.2c-.1.1-5.1 3-6 8.4-.3 1.8-.3 3.5-.3 5-2.1-.4-3.6-.9-5-1.6z"/>
    <path class="st7"
          d="M80.8 152.7v3.4c-3.3 1.6-7.3 2.5-11.7 2.5s-8.4-.9-11.7-2.5v-3.4c3.3 1.6 7.3 2.5 11.7 2.5 4.4.1 8.4-.9 11.7-2.5z"/></svg>
