<svg version="1.1" id="Слой_1" xmlns="http://www.w3.org/2000/svg" x="0" y="0" viewBox="0 0 1000 700" xml:space="preserve"><style>.st2,.st3{fill-rule:evenodd;clip-rule:evenodd}.st2{display:inline;fill:#8cc798}.st3{fill:#4fa26c}.st3,.st7{display:inline}.st10,.st12,.st13,.st8,.st9{fill-rule:evenodd;clip-rule:evenodd;fill:#ffec00}.st10,.st12,.st13,.st9{fill:#ffcb00}.st10,.st12,.st13{fill:#ee7c00}.st12,.st13{fill:#8cc798}.st13{fill:#4fa26c}</style><path class="st8" d="M499.6 14.1c186 0 336.9 150.8 336.9 336.9 0 186-150.8 336.9-336.9 336.9-186 0-336.9-150.8-336.9-336.9 0-186.1 150.8-336.9 336.9-336.9z"/><path class="st12" d="M499.6 544.8c-270.9 0-490.5-83.3-490.5-132.9 0-49.5 115.2-81 280.9-112.7-.3 9.1-.3 18.4-.3 27.6 7 36.4 97.6 55.5 209.9 55.5 112.3 0 203.2-20.5 209.9-55.5-.1-9.1 0-18.4-.3-27.5C874.9 331 990 362.5 990 412c.1 49.5-219.5 132.8-490.4 132.8z"/><path class="st12" d="M690.2 531c-43.6 40.2-112.7 66.2-190.6 66.2-77.9 0-147-26-190.6-66.1 58.6 8.6 123 13.7 190.5 13.7 67.7 0 132.1-5.2 190.7-13.8z"/><path class="st13" d="M495.2 597.2c-76.1-1-143.4-26.7-186.1-66.1 30.7 4.5 63 8 96.6 10.4 6.1 8.7 30.4 37.6 89.5 55.7z"/><path d="M499.6 104.7c-109.6 0-201.8 85.3-209.7 194.8l-.2 10.3c5.9 30.9 97.6 55.5 209.9 55.5 112.3 0 203.9-24.6 209.9-55.5l-.2-10.3c-7.8-109.4-100.1-194.8-209.7-194.8z" fill-rule="evenodd" clip-rule="evenodd" fill="#009de2"/><path d="M645.5 348.8l1.8-.5c17.6-4.8 58.2-17.8 62.2-38.5l-.2-10.3c-5-71.8-47.4-136.6-112.3-170.7-3.1-1.6-5.3-2.8-9.4-4.7 3.3 2.4 57.9 47 57.9 153.1v71.6z" fill-rule="evenodd" clip-rule="evenodd" fill="#a0d8f7"/><path class="st8" d="M289.7 309.8v17c7 36.4 97.6 55.5 209.9 55.5 112.3 0 203.2-20.5 209.9-55.5v-17c-5.9 30.9-97.6 55.5-209.9 55.5-112.2 0-203.9-24.6-209.9-55.5zM499.6 429.3c18.6 0 33.9 15.3 33.9 33.9v.3c-9.6 4.6-21.3 7.2-33.9 7.2-12.6 0-24.3-2.7-33.9-7.2v-.3c0-18.6 15.3-33.9 33.9-33.9z"/><path class="st9" d="M465.7 463.5V462.3c.4-14.8 10.3-27.2 23.8-31.5l.7-.2h.1l.8-.2.7-.2h.1l.6-.1H492.8l.7-.1.6-.1h.2l.6-.1h.3l.5-.1h.9l.7-.1c-.2.1-14.9 8.5-17.4 24.2-.8 5.1-1 10.3-1 14.6-4.6-1.4-9.1-3-13.2-4.9z"/><path class="st10" d="M533.5 463.5v9.9c-9.6 4.6-21.3 7.2-33.9 7.2-12.6 0-24.3-2.7-33.9-7.2v-9.9c9.6 4.6 21.3 7.2 33.9 7.2 12.6 0 24.3-2.7 33.9-7.2z"/><path class="st8" d="M308.6 411.9c18.6 0 33.9 15.3 33.9 33.9v.3c-9.6 4.6-21.3 7.2-33.9 7.2-12.6 0-24.3-2.7-33.9-7.2v-.3c0-18.6 15.2-33.9 33.9-33.9z"/><path class="st9" d="M274.7 446.1V444.9c.4-14.8 10.3-27.2 23.8-31.5l.7-.2h.1l.8-.2.7-.2h.1l.6-.1H301.8l.7-.1.6-.1h.3l.6-.1h.3l.5-.1h.9l.7-.1c-.2.1-14.9 8.5-17.4 24.2-.8 5.1-1 10.3-1 14.6-4.8-1.4-9.2-3-13.3-4.9z"/><path class="st10" d="M342.5 446.1v9.9c-9.6 4.6-21.3 7.2-33.9 7.2-12.6 0-24.3-2.7-33.9-7.2v-9.9c9.6 4.6 21.3 7.2 33.9 7.2 12.5 0 24.2-2.7 33.9-7.2z"/><path class="st8" d="M680.9 411.9c18.6 0 33.9 15.3 33.9 33.9v.3c-9.6 4.6-21.3 7.2-33.9 7.2-12.6 0-24.3-2.7-33.9-7.2v-.3c0-18.6 15.3-33.9 33.9-33.9z"/><path class="st9" d="M647 446.1V444.9c.4-14.8 10.3-27.2 23.8-31.5l.7-.2h.1l.8-.2.7-.2h.1l.6-.1H674.1l.7-.1.6-.1h.2l.6-.1h.3l.5-.1h.9l.7-.1h.1c-.2.1-14.9 8.5-17.4 24.2-.8 5.1-1 10.3-1 14.6-4.7-1.4-9.1-3-13.3-4.9z"/><path class="st10" d="M714.8 446.1v9.9c-9.6 4.6-21.3 7.2-33.9 7.2-12.6 0-24.3-2.7-33.9-7.2v-9.9c9.6 4.6 21.3 7.2 33.9 7.2 12.6 0 24.3-2.7 33.9-7.2z"/><g><path class="st8" d="M810.2 358.5c18.6 0 33.9 15.3 33.9 33.9v.3c-9.6 4.6-21.3 7.2-33.9 7.2-12.6 0-24.3-2.7-33.9-7.2v-.3c0-18.7 15.2-33.9 33.9-33.9z"/><path class="st9" d="M776.3 392.7V391.5c.4-14.8 10.3-27.2 23.8-31.5l.7-.2h.1l.8-.2.7-.2h.1l.6-.1H803.4l.7-.1.6-.1h.2l.6-.1h.3l.5-.1h.9l.7-.1c-.2.1-14.9 8.5-17.4 24.2-.8 5.1-1 10.3-1 14.6-4.6-1.4-9.1-3-13.2-4.9z"/><path class="st10" d="M844.1 392.7v9.9c-9.6 4.6-21.3 7.2-33.9 7.2-12.6 0-24.3-2.7-33.9-7.2v-9.9c9.6 4.6 21.3 7.2 33.9 7.2 12.6 0 24.2-2.7 33.9-7.2z"/></g><path class="st13" d="M46.2 367.1c40.2-22.5 110.7-41.1 199.6-59.2 14.8-2.8 29.6-5.9 44.2-8.7v.7c-.3 8.9-.2 18-.2 26.8 6.1 31.8 75.9 50.3 168.1 54.5 10.1.6 20.4 1 31 1.1-119.7.6-210 4.3-409.9 62.5-43.8-23.1-60.6-49.9-32.8-77.7z"/><path d="M499.6 544.8c-249.2 0-455-70.5-486.3-120.4-2.4-4.2-3.7-7.8-4-10.8-.1-.6-.1-1.1-.1-1.7 0-16.8 13.2-31.5 37.1-44.8-80.7 80.7 215.4 153.3 453.4 153.3 238 0 534.1-72.5 453.4-153.3 23.9 13.3 37.1 28 37.1 44.8 0 .6-.1 1.1-.1 1.7-.4 3-1.6 6.7-4 10.8-31.5 49.9-237.3 120.4-486.5 120.4z" fill-rule="evenodd" clip-rule="evenodd" fill="#006126"/><g><path class="st8" d="M183.2 358.5c18.6 0 33.9 15.3 33.9 33.9v.3c-9.6 4.6-21.3 7.2-33.9 7.2-12.6 0-24.3-2.7-33.9-7.2v-.3c0-18.7 15.2-33.9 33.9-33.9z"/><path class="st9" d="M149.3 392.7V391.5c.4-14.8 10.3-27.2 23.8-31.5l.7-.2h.1l.8-.2.7-.2h.1l.6-.1H176.4l.7-.1.6-.1h.3l.6-.1h.3l.5-.1h.9l.7-.1c-.2.1-14.9 8.5-17.4 24.2-.8 5.1-1 10.3-1 14.6-4.8-1.4-9.2-3-13.3-4.9z"/><path class="st10" d="M217.1 392.7v9.9c-9.6 4.6-21.3 7.2-33.9 7.2-12.6 0-24.3-2.7-33.9-7.2v-9.9c9.6 4.6 21.3 7.2 33.9 7.2 12.5 0 24.2-2.7 33.9-7.2z"/></g></svg>
