<svg xmlns="http://www.w3.org/2000/svg" width="1000" height="700" viewBox="0 0 1000 700" version="1.1">
	<path d="M 470 106.635 C 393.386 118.235, 329.425 169.735, 302.501 241.500 C 297.581 254.613, 292.548 274.894, 290.959 288 C 290.260 293.775, 289.610 298.610, 289.515 298.745 C 289.420 298.880, 273.671 302.150, 254.517 306.011 C 99.748 337.210, 28.860 364.075, 12.295 397.808 C 8.549 405.436, 8.359 415.328, 11.830 421.935 C 31.973 460.269, 151.081 505.974, 288.500 528.101 C 306.658 531.024, 308.822 531.586, 312 534.204 C 339.584 556.925, 365.876 571.189, 401 582.490 C 446.569 597.151, 499.861 600.821, 551.975 592.887 C 600.518 585.497, 650.396 564.400, 681.938 537.916 L 689.311 531.725 714.905 527.419 C 785.916 515.470, 848.333 498.971, 900.058 478.477 C 946.844 459.940, 979.863 438.462, 987.618 421.523 C 992.862 410.070, 989.433 397.485, 977.757 385.325 C 969.515 376.742, 959.975 370.449, 943.399 362.663 C 899.301 341.947, 842.104 325.969, 735.686 304.635 L 708.873 299.260 709.565 312.896 C 710.213 325.667, 710.114 326.864, 708.005 331.767 C 703.468 342.314, 688.281 353.133, 666.898 361.051 C 623.917 376.968, 542.450 385.348, 468.142 381.497 C 408.532 378.408, 373.912 373.665, 343.039 364.358 C 321.911 357.989, 308.580 351.269, 299.323 342.319 C 292.088 335.325, 290.050 330.560, 290.022 320.579 L 290 312.657 293.187 317.468 C 302.104 330.931, 329.451 343.593, 368.500 352.340 C 445.517 369.591, 559.077 369.215, 634.802 351.458 L 646 348.832 646 308.561 C 646 253.898, 644.608 237.920, 637.434 210.240 C 632.481 191.128, 625.531 174.182, 616.215 158.500 C 611.506 150.573, 600.086 135.368, 595.630 131.092 C 593.676 129.217, 592.357 127.192, 592.699 126.592 C 593.041 125.991, 592.970 125.816, 592.541 126.202 C 592.113 126.589, 591.140 126.283, 590.380 125.522 C 587.972 123.115, 563.988 114.331, 551 111.100 C 544.125 109.389, 533.775 107.325, 528 106.513 C 514.533 104.619, 482.872 104.686, 470 106.635 M 598 129.430 C 598 129.705, 598.900 130.411, 600 131 C 601.100 131.589, 602 131.845, 602 131.570 C 602 131.295, 601.100 130.589, 600 130 C 598.900 129.411, 598 129.155, 598 129.430 M 637.500 157 C 638.495 158.100, 639.535 159, 639.810 159 C 640.085 159, 639.495 158.100, 638.500 157 C 637.505 155.900, 636.465 155, 636.190 155 C 635.915 155, 636.505 155.900, 637.500 157 M 656.500 176 C 657.495 177.100, 658.535 178, 658.810 178 C 659.085 178, 658.495 177.100, 657.500 176 C 656.505 174.900, 655.465 174, 655.190 174 C 654.915 174, 655.505 174.900, 656.500 176 M 708.195 291.500 C 708.215 293.150, 708.439 293.704, 708.693 292.731 C 708.947 291.758, 708.930 290.408, 708.656 289.731 C 708.382 289.054, 708.175 289.850, 708.195 291.500 M 803.223 359.021 C 789.958 361.763, 778.719 373.821, 776.514 387.675 C 775.745 392.504, 775.856 392.601, 785.980 395.919 C 800.948 400.824, 819.541 400.640, 836.062 395.421 C 843.943 392.931, 844 392.888, 844 389.494 C 844 379.465, 834.695 366.360, 824.291 361.737 C 817.671 358.795, 809.444 357.734, 803.223 359.021 M 172.005 360.668 C 160.003 364.867, 152.126 374.437, 150.049 387.343 L 149.269 392.186 153.385 393.930 C 168.811 400.466, 191.174 401.071, 209.009 395.437 L 217.249 392.834 216.637 388.167 C 215.071 376.227, 204.817 363.805, 193.834 360.543 C 187.245 358.586, 177.801 358.640, 172.005 360.668 M 296.302 414.103 C 285.637 418.203, 276.395 429.775, 275.298 440.403 L 274.745 445.761 280.139 447.779 C 290.904 451.807, 294.477 452.406, 308 452.453 C 321.715 452.501, 327.411 451.609, 337.750 447.793 L 343.001 445.856 342.384 441.678 C 340.619 429.723, 331.456 418.185, 320.459 414.071 C 313.248 411.373, 303.369 411.386, 296.302 414.103 M 670.005 413.609 C 657.897 418.004, 648.728 429.054, 647.320 440.950 L 646.750 445.763 652.625 447.969 C 669.992 454.493, 692.158 454.500, 709.370 447.988 L 715.240 445.767 714.616 441.214 C 713.176 430.709, 705.601 420.392, 695.546 415.243 C 689.041 411.911, 676.833 411.130, 670.005 413.609 M 491.734 430.027 C 478.085 433.465, 466.616 446.419, 466.534 458.493 L 466.500 463.486 474.500 466.447 C 482.201 469.297, 483.136 469.408, 499.500 469.413 C 515.373 469.418, 517.044 469.236, 524.710 466.678 C 529.226 465.171, 533.166 463.540, 533.467 463.053 C 534.280 461.738, 532.018 452.017, 529.964 448 C 523.070 434.515, 505.922 426.454, 491.734 430.027" stroke="none" fill="black" fill-rule="evenodd"/>
</svg>